<svg xmlns="http://www.w3.org/2000/svg" viewBox="0 0 360 270">
    <path fill="#FFF"
          d="M345.728 110.6c2.84 9.82 2.97 20.72 1.54 30.81-.71 5.06-2.93 9.28-5 13.86-1.87 4.13-3.21 8.36-5.72 12.18-4.79 7.31-9.47 14.66-13.62 22.37-2.43 4.53-5.68 8.36-9.44 11.84-3.05 2.82-6.15 5.97-9.32 8.61-.38.32-.65.67-.81 1.03-.17.08-.35.18-.52.31-24.62 17.85-52.79 29.89-80.91 40.99-13.8 5.45-30.51 4.16-45.12 4.36-15.57.21-30.43-2.14-45.04-7.57-6.5-2.41-13.16-4.14-19.57-6.82-7.58-3.17-14.97-6.73-22.5-9.97-13.25-5.7-23.97-13.61-34.18-23.63-10.13-9.95-20.26-19.42-27.96-31.5-3.38-5.31-6.76-11.52-8.51-17.6-.94-3.27-1.46-6.69-2.41-9.98-1.21-4.18-2.79-8.02-3.32-12.38-.97-8.06-.02-16.46-.07-24.57-.05-8.3-.32-17.4 1.96-25.44l22.25-19.01c1.8-.48 3.59-1 5.31-1.78 4.75-2.18 8.92-2.28 14.02-2.71 3.83-.32 3.86-6.33 0-6-1.96.16-4.01.1-6.02.22.53-.29 1.07-.56 1.64-.83 6.75-3.15 13.85-4.77 21.03-6.58 6.06-1.53 11.94-3.54 18.08-4.81 8.33-1.73 13.83-2.11 22.68-3.12 7-.8 14.39.14 21.44.2 8.3.06 16.59.21 24.89.44 15.97.45 32.04 1.01 47.99 1.89 7.63.43 15.17 2.27 22.74 3.2 4.26.52 8.54.68 12.79 1.28 2.91.41 5.54 1.5 8.22 2.55.37.27.82.46 1.36.52.4.15.8.29 1.2.43.24.08.48.14.7.16.05.02.1.04.15.05 4.47 1.13 8.86 1.93 13.37 2.83 4.28.85 8.49 2.95 12.72 4.11 4.57 1.26 9.12 2.05 13.55 3.81 4.51 1.8 9 3.52 13.57 5.18 4.8 1.73 9.32 4.27 13.51 7.17 3.83 2.64 7.75 5.07 10.65 8.75 1.58 2 3.28 3.89 4.75 5.97.09.13.18.26.26.39 1.21 1.99 1.28 4.39 1.88 6.59 1.17 4.29 4.51 7.78 5.79 12.2z"/>
    <path d="M351.508 109c2.63 10.37 3.04 20.79 1.91 31.43-.5 4.66-1.69 9.26-3.82 13.45-2.3 4.53-3.69 9.59-6.25 13.98-4.92 8.44-10.46 16.45-15.24 24.99-2.44 4.36-5.38 8.42-9.06 11.83-3.49 3.23-7.01 6.82-10.63 9.83-.44.36-.91.58-1.38.68.69-2.25-1.36-5-3.68-3.89.16-.36.43-.71.81-1.03 3.17-2.64 6.27-5.79 9.32-8.61 3.76-3.48 7.01-7.31 9.44-11.84 4.15-7.71 8.83-15.06 13.62-22.37 2.51-3.82 3.85-8.05 5.72-12.18 2.07-4.58 4.29-8.8 5-13.86 1.43-10.09 1.3-20.99-1.54-30.81-1.28-4.42-4.62-7.91-5.79-12.2-.6-2.2-.67-4.6-1.88-6.59l1.23-.38c.87 1.7 3.62 2.2 5.03.64.36.98.68 2.04.99 3.19 1.32 4.86 4.93 8.7 6.2 13.74zm-.18-74.44c7.83 17.87-.78 39.18-6.35 56.36-.15.47-.37.85-.66 1.15-.92-2.52-2.04-4.6-3.78-6.85 3.18-9.53 6.53-19.27 7.39-29.26.61-7.14.58-14.97-3.22-21.33-7.6-12.71-23.15-11.93-35.64-8.21-13.12 3.92-25.55 10.01-37.48 16.66-3.3 1.84-6.58 3.73-9.82 5.69-1.52-.29-3.03-.59-4.5-.96-.21-.05-.41-.08-.6-.09-.08-.05-.16-.08-.25-.11-.89-.31-1.76-.64-2.62-.99.23-.14.46-.29.69-.43 1.52-.95 3.06-1.9 4.61-2.82 5.34-3.2 10.76-6.27 16.28-9.14 12.97-6.74 27.18-13.79 41.82-15.78 13.96-1.9 28.13 2.4 34.13 16.11z"/>
    <path d="M344.708 34.63c3.8 6.36 3.83 14.19 3.22 21.33-.86 9.99-4.21 19.73-7.39 29.26-.4-.53-.85-1.07-1.33-1.63-3.1-3.58-5.57-6.46-9.58-9.07-4.48-2.92-8.62-5.97-13.43-8.37-4.53-2.26-9.45-3.67-14.17-5.44-5.19-1.96-9.99-3.91-15.42-5.14-4.92-1.11-9.64-2.76-14.39-4.42-3.3-1.15-6.91-1.72-10.45-2.38 3.24-1.96 6.52-3.85 9.82-5.69 11.93-6.65 24.36-12.74 37.48-16.66 12.49-3.72 28.04-4.5 35.64 8.21zm-4.17 50.59c1.74 2.25 2.86 4.33 3.78 6.85-1.41 1.56-4.16 1.06-5.03-.64-.29-.58-.36-1.29-.1-2.1.44-1.37.9-2.74 1.35-4.11z"/>
    <path d="M340.538 85.22c-.45 1.37-.91 2.74-1.35 4.11-.26.81-.19 1.52.1 2.1l-1.23.38c-.08-.13-.17-.26-.26-.39-1.47-2.08-3.17-3.97-4.75-5.97-2.9-3.68-6.82-6.11-10.65-8.75-4.19-2.9-8.71-5.44-13.51-7.17-4.57-1.66-9.06-3.38-13.57-5.18-4.43-1.76-8.98-2.55-13.55-3.81-4.23-1.16-8.44-3.26-12.72-4.11-4.51-.9-8.9-1.7-13.37-2.83-.05-.01-.1-.03-.15-.05 1.71.19 2.82-1.22 2.95-2.74.28-.19.54-.37.78-.52.83-.51 1.67-1.02 2.51-1.52 3.54.66 7.15 1.23 10.45 2.38 4.75 1.66 9.47 3.31 14.39 4.42 5.43 1.23 10.23 3.18 15.42 5.14 4.72 1.77 9.64 3.18 14.17 5.44 4.81 2.4 8.95 5.45 13.43 8.37 4.01 2.61 6.48 5.49 9.58 9.07.48.56.93 1.1 1.33 1.63zm-37.18 126.08c2.32-1.11 4.37 1.64 3.68 3.89-2.27.48-4.58-1.88-3.68-3.89z"/>
    <path d="M303.358 211.3c-.9 2.01 1.41 4.37 3.68 3.89-.18.6-.56 1.16-1.17 1.6-10.37 7.52-21.31 14.56-33 19.82-11.27 5.07-21.97 11.78-33.71 15.74-6.46 2.18-12.61 5.28-19.11 7.34-5.57 1.76-11.36 1.93-17.14 2.42-12.77 1.07-26.2 1.56-38.99.57-14.73-1.14-27.9-5.84-41.89-10.12-13.81-4.23-27.25-10.85-40.31-16.97-6.53-3.07-12.31-6.81-17.95-11.29-2.29-1.83-4.87-3.36-7.01-5.37-2.33-2.2-4.35-4.7-6.72-6.88-9.86-9.07-19.54-18.81-26.78-30.17-7.3-11.45-11.07-23.86-14.55-36.86-1.9-7.07-1.71-14.25-1.5-21.5.2-7.17-.05-14.33.29-21.5.18-3.91.22-8.09.92-12.08 1.13.9 3.06.74 4.16-.19.88-.75 1.75-1.5 2.63-2.25-2.28 8.04-2.01 17.14-1.96 25.44.05 8.11-.9 16.51.07 24.57.53 4.36 2.11 8.2 3.32 12.38.95 3.29 1.47 6.71 2.41 9.98 1.75 6.08 5.13 12.29 8.51 17.6 7.7 12.08 17.83 21.55 27.96 31.5 10.21 10.02 20.93 17.93 34.18 23.63 7.53 3.24 14.92 6.8 22.5 9.97 6.41 2.68 13.07 4.41 19.57 6.82 14.61 5.43 29.47 7.78 45.04 7.57 14.61-.2 31.32 1.09 45.12-4.36 28.12-11.1 56.29-23.14 80.91-40.99.17-.13.35-.23.52-.31zm-41.59-162.53c-.84.5-1.68 1.01-2.51 1.52-.24.15-.5.33-.78.52.1-1.22-.44-2.51-1.81-3.09.19.01.39.04.6.09 1.47.37 2.98.67 4.5.96z"/>
    <path d="M256.668 47.72c1.37.58 1.91 1.87 1.81 3.09-1.2.84-2.65 1.95-4.04 2.15-1.91-1.65-.6-5.44 2.23-5.24z"/>
    <path d="M252.938 47.16c-.35.14-.45.29 0 0zm.03-.01c.21-.08.49-.16.79-.16-.21-.01-.41 0-.59.03.21-.13.42-.26.63-.4.86.35 1.73.68 2.62.99.09.03.17.06.25.11-2.83-.2-4.14 3.59-2.23 5.24-.19.03-.38.04-.57.03-.08-.01-.16-.01-.24-.03-.46-.17-.91-.34-1.36-.52-1.97-1.4-1.68-5.02.9-5.42-.04.02-.07.05-.11.07-.03.02-.07.04-.09.06zm5.51 3.66c-.13 1.52-1.24 2.93-2.95 2.74-.44-.12-.8-.33-1.09-.59 1.39-.2 2.84-1.31 4.04-2.15z"/>
    <path d="M253.798 46.62c-.21.14-.42.27-.63.4-2.58.4-2.87 4.02-.9 5.42-2.68-1.05-5.31-2.14-8.22-2.55-4.25-.6-8.53-.76-12.79-1.28-7.57-.93-15.11-2.77-22.74-3.2-15.95-.88-32.02-1.44-47.99-1.89-8.3-.23-16.59-.38-24.89-.44-7.05-.06-14.44-1-21.44-.2-8.85 1.01-14.35 1.39-22.68 3.12-6.14 1.27-12.02 3.28-18.08 4.81-7.18 1.81-14.28 3.43-21.03 6.58-.57.27-1.11.54-1.64.83-1.16.06-2.32.18-3.43.44-2.91.67-5.44 1.96-8.17 3.11-1.67.7-3.4 1.25-5.13 1.76 1.83-1.56 3.66-3.12 5.49-4.69 5.15-4.4 10.28-7.24 16.84-9.57 7.32-2.6 15.03-3.81 22.42-6.17 4.84-1.55 9.75-2.67 14.74-3.59.83-.15 1.67-.3 2.51-.43.15.19.29.39.43.58 1.87 2.58 5.79.94 5.74-1.48 20.54-2.55 41.63-1.23 62.25-.53 8.52.28 17.05.66 25.56 1.23 7.4.49 14.88-.05 22.25.9 8.29 1.07 16.48 2.64 24.83 3.37 3.44.29 7.1.45 10.47 1.29 2.15.53 4.18 1.37 6.23 2.18z"/>
    <path d="M102.208 38.18c.05 2.42-3.87 4.06-5.74 1.48-.14-.19-.28-.39-.43-.58 2.05-.35 4.11-.64 6.17-.9z"/>
    <path d="M101.648 36.63c.38.53.55 1.05.56 1.55-2.06.26-4.12.55-6.17.9-4.06-5.56-8.3-10.4-13.77-14.64-5.01-3.88-9.68-8.68-14.99-12.1-6.42-4.14-12.79-4.43-20.18-4.93-6.03-.41-12.93.84-18.18 4.09-11.13 6.88-15.05 20.25-15.79 32.63-.42 7.07-.25 14.15-.26 21.23 0 4.73-.27 9.5-.13 14.23-.97 1.31-1.84 2.67-2.53 4.22l-.06.15c-.43.37-.87.74-1.3 1.11-.17.14-.34.29-.51.43.37.1.74.2 1.11.29-.46 1.34-.79 2.73-1.03 4.15-.44-.34-.75-.85-.85-1.52-1.36-8.8-.65-17.69-.71-26.55-.07-7.93-.21-15.91.88-23.77 1.84-13.38 7.84-27.06 20.71-33.07 7.35-3.43 13.98-3.65 21.87-3.4 7.07.23 14.06 1.31 19.99 5.53 5.63 4 10.77 8.75 16.2 13.04 6.03 4.76 10.65 10.23 15.14 16.43z"/>
    <path d="M96.038 39.08c-.84.13-1.68.28-2.51.43-4.99.92-9.9 2.04-14.74 3.59-7.39 2.36-15.1 3.57-22.42 6.17-6.56 2.33-11.69 5.17-16.84 9.57-1.83 1.57-3.66 3.13-5.49 4.69-4.61 1.37-9.24 2.5-13.04 5.78-2.38 2.05-4.2 5.17-6.15 7.59-.73.91-1.44 1.79-2.11 2.69-.14-4.73.13-9.5.13-14.23.01-7.08-.16-14.16.26-21.23.74-12.38 4.66-25.75 15.79-32.63 5.25-3.25 12.15-4.5 18.18-4.09 7.39.5 13.76.79 20.18 4.93 5.31 3.42 9.98 8.22 14.99 12.1 5.47 4.24 9.71 9.08 13.77 14.64z"/>
    <path d="M56.788 58c3.86-.33 3.83 5.68 0 6-5.1.43-9.27.53-14.02 2.71-1.72.78-3.51 1.3-5.31 1.78.92-.79 1.85-1.58 2.77-2.37 3.61-3.09 6.58-5.76 10.54-7.9 2.01-.12 4.06-.06 6.02-.22z"/>
    <path d="M47.338 58.66c1.11-.26 2.27-.38 3.43-.44-3.96 2.14-6.93 4.81-10.54 7.9-.92.79-1.85 1.58-2.77 2.37-1.83.49-3.67.96-5.43 1.67-4.61 1.86-7.24 3.7-10.3 7.67-2.32 3.01-5.45 5.88-6.51 9.63 0 .01-.01.03-.01.04-.88.75-1.75 1.5-2.63 2.25-1.1.93-3.03 1.09-4.16.19.24-1.42.57-2.81 1.03-4.15 1.3.35 2.6.7 3.9 1.04a56.02 56.02 0 0 1-.53-5.16c7.07-6.04 14.15-12.08 21.22-18.14 1.73-.51 3.46-1.06 5.13-1.76 2.73-1.15 5.26-2.44 8.17-3.11z"/>
    <path d="M37.458 68.49L15.208 87.5c0-.01.01-.03.01-.04 1.06-3.75 4.19-6.62 6.51-9.63 3.06-3.97 5.69-5.81 10.3-7.67 1.76-.71 3.6-1.18 5.43-1.67zm-3.42-4.96c-7.07 6.06-14.15 12.1-21.22 18.14-.03-.69-.06-1.38-.08-2.08.67-.9 1.38-1.78 2.11-2.69 1.95-2.42 3.77-5.54 6.15-7.59 3.8-3.28 8.43-4.41 13.04-5.78zM13.348 86.83c-1.3-.34-2.6-.69-3.9-1.04.2-.62.43-1.23.7-1.83.89-.76 1.78-1.52 2.67-2.29.1 1.72.27 3.45.53 5.16z"/>
    <path d="M12.818 81.67c-.89.77-1.78 1.53-2.67 2.29l.06-.15c.69-1.55 1.56-2.91 2.53-4.22.02.7.05 1.39.08 2.08zm-3.97 3.4c.43-.37.87-.74 1.3-1.11-.27.6-.5 1.21-.7 1.83-.37-.09-.74-.19-1.11-.29.17-.14.34-.29.51-.43z"/>
    <g fill="none" stroke="#000" stroke-width=".5" stroke-linecap="round" stroke-linejoin="round">
        <path d="M303.358 211.3c-.17.08-.35.18-.52.31-24.62 17.85-52.79 29.89-80.91 40.99-13.8 5.45-30.51 4.16-45.12 4.36-15.57.21-30.43-2.14-45.04-7.57-6.5-2.41-13.16-4.14-19.57-6.82-7.58-3.17-14.97-6.73-22.5-9.97-13.25-5.7-23.97-13.61-34.18-23.63-10.13-9.95-20.26-19.42-27.96-31.5-3.38-5.31-6.76-11.52-8.51-17.6-.94-3.27-1.46-6.69-2.41-9.98-1.21-4.18-2.79-8.02-3.32-12.38-.97-8.06-.02-16.46-.07-24.57-.05-8.3-.32-17.4 1.96-25.44 0-.01.01-.03.01-.04 1.06-3.75 4.19-6.62 6.51-9.63 3.06-3.97 5.69-5.81 10.3-7.67 1.76-.71 3.6-1.18 5.43-1.67 1.8-.48 3.59-1 5.31-1.78 4.75-2.18 8.92-2.28 14.02-2.71 3.83-.32 3.86-6.33 0-6-1.96.16-4.01.1-6.02.22-1.16.06-2.32.18-3.43.44-2.91.67-5.44 1.96-8.17 3.11-1.67.7-3.4 1.25-5.13 1.76-4.61 1.37-9.24 2.5-13.04 5.78-2.38 2.05-4.2 5.17-6.15 7.59-.73.91-1.44 1.79-2.11 2.69-.97 1.31-1.84 2.67-2.53 4.22l-.06.15c-.27.6-.5 1.21-.7 1.83-.46 1.34-.79 2.73-1.03 4.15-.7 3.99-.74 8.17-.92 12.08-.34 7.17-.09 14.33-.29 21.5-.21 7.25-.4 14.43 1.5 21.5 3.48 13 7.25 25.41 14.55 36.86 7.24 11.36 16.92 21.1 26.78 30.17 2.37 2.18 4.39 4.68 6.72 6.88 2.14 2.01 4.72 3.54 7.01 5.37 5.64 4.48 11.42 8.22 17.95 11.29 13.06 6.12 26.5 12.74 40.31 16.97 13.99 4.28 27.16 8.98 41.89 10.12 12.79.99 26.22.5 38.99-.57 5.78-.49 11.57-.66 17.14-2.42 6.5-2.06 12.65-5.16 19.11-7.34 11.74-3.96 22.44-10.67 33.71-15.74 11.69-5.26 22.63-12.3 33-19.82.61-.44.99-1 1.17-1.6.69-2.25-1.36-5-3.68-3.89z"/>
        <path d="M255.528 53.55c.05.02.1.04.15.05 4.47 1.13 8.86 1.93 13.37 2.83 4.28.85 8.49 2.95 12.72 4.11 4.57 1.26 9.12 2.05 13.55 3.81 4.51 1.8 9 3.52 13.57 5.18 4.8 1.73 9.32 4.27 13.51 7.17 3.83 2.64 7.75 5.07 10.65 8.75 1.58 2 3.28 3.89 4.75 5.97.09.13.18.26.26.39 1.21 1.99 1.28 4.39 1.88 6.59 1.17 4.29 4.51 7.78 5.79 12.2 2.84 9.82 2.97 20.72 1.54 30.81-.71 5.06-2.93 9.28-5 13.86-1.87 4.13-3.21 8.36-5.72 12.18-4.79 7.31-9.47 14.66-13.62 22.37-2.43 4.53-5.68 8.36-9.44 11.84-3.05 2.82-6.15 5.97-9.32 8.61-.38.32-.65.67-.81 1.03-.9 2.01 1.41 4.37 3.68 3.89.47-.1.94-.32 1.38-.68 3.62-3.01 7.14-6.6 10.63-9.83 3.68-3.41 6.62-7.47 9.06-11.83 4.78-8.54 10.32-16.55 15.24-24.99 2.56-4.39 3.95-9.45 6.25-13.98 2.13-4.19 3.32-8.79 3.82-13.45 1.13-10.64.72-21.06-1.91-31.43-1.27-5.04-4.88-8.88-6.2-13.74-.31-1.15-.63-2.21-.99-3.19-.92-2.52-2.04-4.6-3.78-6.85-.4-.53-.85-1.07-1.33-1.63-3.1-3.58-5.57-6.46-9.58-9.07-4.48-2.92-8.62-5.97-13.43-8.37-4.53-2.26-9.45-3.67-14.17-5.44-5.19-1.96-9.99-3.91-15.42-5.14-4.92-1.11-9.64-2.76-14.39-4.42-3.3-1.15-6.91-1.72-10.45-2.38-1.52-.29-3.03-.59-4.5-.96-.21-.05-.41-.08-.6-.09-2.83-.2-4.14 3.59-2.23 5.24.29.26.65.47 1.09.59z"/>
        <path d="M102.208 38.18c-.01-.5-.18-1.02-.56-1.55-4.49-6.2-9.11-11.67-15.14-16.43-5.43-4.29-10.57-9.04-16.2-13.04-5.93-4.22-12.92-5.3-19.99-5.53-7.89-.25-14.52-.03-21.87 3.4-12.87 6.01-18.87 19.69-20.71 33.07-1.09 7.86-.95 15.84-.88 23.77.06 8.86-.65 17.75.71 26.55.1.67.41 1.18.85 1.52 1.13.9 3.06.74 4.16-.19.88-.75 1.75-1.5 2.63-2.25l22.25-19.01c.92-.79 1.85-1.58 2.77-2.37 3.61-3.09 6.58-5.76 10.54-7.9.53-.29 1.07-.56 1.64-.83 6.75-3.15 13.85-4.77 21.03-6.58 6.06-1.53 11.94-3.54 18.08-4.81 8.33-1.73 13.83-2.11 22.68-3.12 7-.8 14.39.14 21.44.2 8.3.06 16.59.21 24.89.44 15.97.45 32.04 1.01 47.99 1.89 7.63.43 15.17 2.27 22.74 3.2 4.26.52 8.54.68 12.79 1.28 2.91.41 5.54 1.5 8.22 2.55.45.18.9.35 1.36.52.4.15.8.29 1.2.43.24.08.48.14.7.16 1.71.19 2.82-1.22 2.95-2.74.1-1.22-.44-2.51-1.81-3.09-.08-.05-.16-.08-.25-.11-.89-.31-1.76-.64-2.62-.99-2.05-.81-4.08-1.65-6.23-2.18-3.37-.84-7.03-1-10.47-1.29-8.35-.73-16.54-2.3-24.83-3.37-7.37-.95-14.85-.41-22.25-.9-8.51-.57-17.04-.95-25.56-1.23-20.62-.7-41.71-2.02-62.25.53-2.06.26-4.12.55-6.17.9-.84.13-1.68.28-2.51.43-4.99.92-9.9 2.04-14.74 3.59-7.39 2.36-15.1 3.57-22.42 6.17-6.56 2.33-11.69 5.17-16.84 9.57-1.83 1.57-3.66 3.13-5.49 4.69-7.07 6.06-14.15 12.1-21.22 18.14-.89.77-1.78 1.53-2.67 2.29-.43.37-.87.74-1.3 1.11-.17.14-.34.29-.51.43.37.1.74.2 1.11.29 1.3.35 2.6.7 3.9 1.04a56.02 56.02 0 0 1-.53-5.16c-.03-.69-.06-1.38-.08-2.08-.14-4.73.13-9.5.13-14.23.01-7.08-.16-14.16.26-21.23.74-12.38 4.66-25.75 15.79-32.63 5.25-3.25 12.15-4.5 18.18-4.09 7.39.5 13.76.79 20.18 4.93 5.31 3.42 9.98 8.22 14.99 12.1 5.47 4.24 9.71 9.08 13.77 14.64.15.19.29.39.43.58 1.87 2.58 5.79.94 5.74-1.48z"/>
        <path d="M253.868 46.99h-.11c-.21-.01-.41 0-.59.03-2.58.4-2.87 4.02-.9 5.42.37.27.82.46 1.36.52.08.02.16.02.24.03.19.01.38 0 .57-.03 1.39-.2 2.84-1.31 4.04-2.15.28-.19.54-.37.78-.52.83-.51 1.67-1.02 2.51-1.52 3.24-1.96 6.52-3.85 9.82-5.69 11.93-6.65 24.36-12.74 37.48-16.66 12.49-3.72 28.04-4.5 35.64 8.21 3.8 6.36 3.83 14.19 3.22 21.33-.86 9.99-4.21 19.73-7.39 29.26-.45 1.37-.91 2.74-1.35 4.11-.26.81-.19 1.52.1 2.1.87 1.7 3.62 2.2 5.03.64.29-.3.51-.68.66-1.15 5.57-17.18 14.18-38.49 6.35-56.36-6-13.71-20.17-18.01-34.13-16.11-14.64 1.99-28.85 9.04-41.82 15.78-5.52 2.87-10.94 5.94-16.28 9.14-1.55.92-3.09 1.87-4.61 2.82-.23.14-.46.29-.69.43-.21.14-.42.27-.63.4-.04.02-.07.05-.11.07-.03.02-.07.04-.09.06m0 0c.21-.08.49-.16.79-.16"/>
        <path d="M252.938 47.16c-.45.29-.35.14 0 0zm0 0c.01 0 .02-.01.03-.01"/>
    </g>
    <path fill="#050000"
          d="M103.291 142.833c9.54 0 17.5-7.96 17.5-17.5s-7.96-17.5-17.5-17.5-17.5 7.96-17.5 17.5 7.961 17.5 17.5 17.5z"/>
    <path d="M93.625 101.25c.645 0 .645-1 0-1s-.645 1 0 1zm3.833 36.25s5-8 0-8-5 8 0 8c0 0-5 0 0 0z"/>
    <path d="M125.896 92.643c-10.485-3.269-20.96-4.062-31.181.418-9.844 4.316-16.706 13.636-22.9 21.994-7.562 10.203-14.909 21.584-11.839 34.81 2.343 10.092 11.201 16.63 20.473 19.85 22.672 7.874 45.821-2.157 61.558-18.638 7.08-7.415 12.977-16.028 18.347-24.737 4.63-7.508 8.7-15.589 9.881-24.41 2.187-16.329-14.462-19.835-27.032-20.542-15.191-.854-34.553.849-46.198 11.783-3.768 3.538 1.9 9.184 5.657 5.657 7.689-7.22 19.885-8.789 29.954-9.408 7.999-.492 22.116-1.6 28.17 4.839 5.17 5.498-1.385 17.308-4.091 22.408-4.518 8.517-10.159 16.737-16.282 24.162-8.284 10.046-18.587 18.728-31.392 22.072-9.912 2.588-21.91 1.825-31.067-2.867-4.473-2.292-7.978-6.012-9.764-10.722-2.78-7.331.401-14.637 4.135-20.946 5.795-9.791 13.586-20.683 23.386-26.785 8.662-5.394 18.778-4.116 28.059-1.223 4.939 1.539 7.035-6.185 2.126-7.715z"/>
    <path d="M105.583 127.875c8.449 0 15.5-7.051 15.5-15.5s-7.051-15.5-15.5-15.5-15.5 7.051-15.5 15.5 7.051 15.5 15.5 15.5z"/>
    <path d="M121.079 117.571c2.767-.418 5.507-1.024 8.254-1.557 1.842-.357 3.689-.686 5.54-.995.764-.125 1.529-.242 2.295-.353-4.234.631-.417.098.402.02a43.05 43.05 0 0 1 5.142-.167c1.733.128 1.222.033-1.531-.284 1.589.246 2.956 1.51-1.089-.65-2.78-1.669-4.601-3.982-5.463-6.939l-.338-2.832c-.013 1.583.122.929.405-1.963-.119.814-.396 1.605-.653 2.383 1.393-4.222.568-1.329.029-.264-.801 1.581-1.774 3.073-2.751 4.548a69.496 69.496 0 0 1-1.294 1.848c-2.269 3.187 2.076-2.561-.382.526-2.495 3.133-5.211 6.092-8.006 8.958a105.023 105.023 0 0 1-3.092 3.025c-.701.662-3.739 3.002-.485.595-5.526 4.086-11.666 6.603-16.938 11.194-11.97 10.424.703 30.009 15.081 25.906 2.487-.71 4.975-1.268 7.375-2.25l-11.944-28.33a189.689 189.689 0 0 0-5.63 2.595c-.528.252-5.545 2.535-3.708 1.776-2 .826-4.06 1.443-6.153 1.979-1.887.385-2.082.423-.586.114-4.122.327 1.9.825-2.229-.151-1.694-.578-1.479-.483.645.286-1.421-.919-1.142-.694.837.675 1.404 2.017 1.678 2.346.822.988.895 2.385 1.094 2.794.597 1.227-.699-2.35.005 3.772.194-.532-.207 4.721.271-.477.73-1.915.592-1.584.471-1.36-.361.67.303-.669.625-1.328.967-1.977.661-1.302 1.449-2.534 2.252-3.75 1.522-2.308-2.065 2.259.8-.945.437-.474.89-.932 1.359-1.375 2.349-2.294-3.179 1.994.385-.219 1.572-.794 1.552-.822-.061-.082a27.621 27.621 0 0 1 2.641-.775c.913-.22 1.833-.401 2.762-.543-3.467.607 1.141.093 1.59.078 1.891-.065 3.786.058 5.671.198 1.862.2 1.828.179-.102-.065 1.228.179 2.442.438 3.655.701l-9.263-22.769c1.523-1.99-2.282 2.091-2.692 2.474a54.846 54.846 0 0 1-2.322 1.985c2.209-1.835-1.759 1.245-1.793 1.269-4.849 3.463-9.715 6.809-14.395 10.51-6.638 5.25-5.452 16.468 0 21.92 6.49 6.49 15.3 5.236 21.92 0-1.134.861-.963.743.514-.353 1.245-.912 2.522-1.782 3.791-2.661 2.12-1.468 4.238-2.934 6.318-4.46 6.096-4.471 10.838-9.043 15.426-15.039 5.975-7.808-.264-20.824-9.263-22.769-13.431-2.903-27.645-2.947-40.043 3.614-10.12 5.355-17.278 17.482-20.258 28.158-4.124 14.777 2.184 28.665 16.309 34.576 15.364 6.43 30.599-2.642 44.32-8.643 6.266-2.74 8.802-11.402 7.123-17.504-2.038-7.41-11.234-14.033-19.067-10.826-2.4.982-4.888 1.54-7.375 2.25l15.081 25.906c-1.854 1.615 2.178-1.404 2.142-1.382 1.401-.853 2.869-1.608 4.306-2.399 3.243-1.784 6.213-3.913 9.057-6.287 2.809-2.344 5.35-5.043 7.837-7.718 7.4-7.958 15.1-17.25 18.037-27.937 1.947-7.088.669-15.548-4.684-20.89-4.868-4.859-11.33-6.32-17.986-6.476-9.75-.229-19.351 2.735-28.915 4.182-8.367 1.265-12.863 11.66-10.826 19.067 2.437 8.86 10.72 12.088 19.067 10.825zM267.458 109.25s4-6 0-6-4 6 0 6c0 0-4 0 0 0z"/>
    <path d="M261.756 92.893c10.415-2.102 21.581-4.873 32.208-2.726 12.469 2.519 17.949 14.268 21.494 25.286 3.302 10.262 6.31 23.242 1.149 33.421-4.801 9.468-16.507 11.245-26.041 11.139-14.561-.162-26.584-7.905-36.647-17.769-9.582-9.392-19.972-20.269-26.678-31.966-5.904-10.298-4.238-22.735 6.742-28.531 9.421-4.973 22.545-3.923 32.697-2.524 11.833 1.631 28.578 5.225 33.813 17.29 1.537 3.541 6.704.483 5.181-3.028-3.985-9.184-12.991-13.455-22.048-16.529-10.355-3.514-21.724-4.87-32.622-4.62-9.704.223-19.724 2.247-26.888 9.22-7.077 6.888-7.499 17.596-4.462 26.42 3.844 11.169 13.852 20.94 21.541 29.565 8.664 9.72 18.21 19.5 30.496 24.48 17.278 7.004 43.576 6.427 51.624-13.535 3.286-8.151 1.972-17.648.215-25.968-2.236-10.587-5.989-21.84-13.396-29.973-12.648-13.886-34.013-8.66-49.972-5.439-3.793.766-2.184 6.549 1.594 5.787z"/>
    <path d="M265.458 130.25s15-24 0-24c-16 0-16 24 0 24 0 0-16 0 0 0z"/>
    <path d="M231.768 114.821c1.663.578 3.344 1.09 5.023 1.616.979.306 2.39 1.469 1.18-.255l1.876-14.542c.973-.817 3.05-1.182 4.292-.501-10.355-5.674-22.762 5.833-16.418 16.418 6.753 11.268 15.035 21.975 25.284 30.271 10.55 8.541 21.901 13.018 35.327 14.408 13.745 1.423 26.338-3.775 31.053-17.362 3.88-11.18 1.092-25.053-3.655-35.476-5.34-11.724-17.325-20.77-28.792-25.894-8.857-3.959-17.636-5.432-27.227-6.432-9.417-.982-19.504-1.184-28.295 2.752-11.19 5.01-12.23 18.56-5.157 27.319 4.782 5.922 13.342 8.349 20.408 10.133 7.937 2.004 16.072 3.155 23.933 5.468.839.247 1.666.531 2.491.819 2.713.947-2.387-1.132.058.003.638.296 1.242.653 1.842 1.018 2.051 1.245-2.119-1.901-.52-.349 1.795 1.742-1.65-2.384.27.267.666.919 1.247 1.895 1.829 2.868.054.09 1.706 3.574.853 1.441.273.683.618 3.803.44.932-.311-5.034 5.198-8.238 9.467-7.338 2.581.545.601.223-.387-.39-1.757-1.09-3.361-2.443-5.041-3.644-4.91-3.511-10.871-4.94-16.76-3.442-14.992 3.811-8.628 26.958 6.38 23.143-1.533.39-2.883.102-4.27-.533.897.411 1.723 1.007 2.537 1.556 1.719 1.16 3.323 2.481 5.041 3.644 5.859 3.967 12.993 4.456 19.206 1.079 14.287-7.766 6.026-26.205-1.605-35.409-5.317-6.412-14.226-8.704-22.002-10.502-8.22-1.9-16.664-3.083-24.636-5.928-2.784-.993 2.345 1.112-.181-.076-.674-.317-1.314-.696-1.951-1.082-2.145-1.3 2.068 1.852.353.251-1.663-1.553 1.556 2.455.493.563 1.772 3.153 1.416 5.654-1.243 8.75-1.726 2.01-1.729 1.165-.377.448-3.123 1.656-.267.268.785.024.615-.143 3.513-.445.394-.106.984-.107 1.974-.148 2.962-.194 2.104-.098 4.215-.038 6.318.044 2.126.083 4.247.266 6.364.469a127.2 127.2 0 0 1 3.019.338c2.323.277-2.095-.324 1.353.208 8.844 1.366 16.591 4.435 23.171 10.053 8.135 6.946 10.09 14.284 9.606 23.997-.191 3.839.487-1.866-.304 1.703-.205.923-.48 1.496.291.52 1.149-.7 1.127-.683-.066.051 1.205-.424 1.117-.409-.265.045-.774.215-1.557.385-2.351.51 1.118-.199.92-.227-.594-.084-1.309.065-2.623-.009-3.93-.075a51.823 51.823 0 0 1-2.61-.236c1.061.135.87.09-.574-.136-2.367-.408-5.9-1.218-7.486-1.9-13.413-5.763-23.196-18.388-30.528-30.622l-16.418 16.418c8.786 4.814 17.361 2.988 24.792-3.251 3.844-3.228 4.75-10.445 1.876-14.542-5.236-7.465-12.338-9.536-20.547-12.39-6.182-2.149-13.113 2.39-14.761 8.381-1.819 6.623 2.211 12.618 8.384 14.763z"/>
    <path d="M224.73 117.979c.206.217.28.756.371 1.029.155.465.318.92.5 1.375.324.81.15 1.612.297 2.438.091.509.62.866 1.111.857 1.025-.019 2.047-.053 3.074-.053.646 0 .643-.979 0-1a5.995 5.995 0 0 1-1.867-.357c-.525-.187-.102-.845-.026-1.135a.505.505 0 0 0-.349-.615c-1.033-.266-1.376 1.287-1.278 2.016.167 1.24 3.139.717 3.895.717.645 0 .645-1 0-1-.631 0-1.262-.011-1.893.008-.162.005-1.093.145-1.013-.294.045-.249.327-.404.023-.482l-.349-.615c-.181.69-.356 1.424.285 2.065.608.608 1.947.667 2.947.693v-.625h-2.5c-.295 0-1.108.054-1.125-.562-.011-.401.104-.9.035-1.299-.137-.784-.55-1.592-.803-2.35-.171-.514-.248-1.093-.629-1.494-.444-.47-1.15.215-.706.683z"/>
    <circle fill="#FF0300" cx="113.646" cy="125.438" r="30.562"/>
    <circle fill="#0003E9" cx="114.396" cy="125.438" r="26.188"/>
    <circle fill="#FF0" cx="114.333" cy="125.5" r="20.5"/>
    <circle fill="#FF0200" cx="114.833" cy="124.875" r="16.5"/>
    <circle fill="#0502FF" cx="114.083" cy="124.375" r="12.5"/>
    <circle fill="#EDFF00" cx="113.861" cy="124.861" r="8.028"/>
    <circle fill="#FF0017" cx="113.954" cy="125.621" r="4.371"/>
    <g>
        <circle fill="#00F" cx="275.791" cy="115.833" r="30.167"/>
        <circle fill="#FF0" cx="276.625" cy="117" r="25.583"/>
        <circle fill="#FF0500" cx="277.334" cy="117.292" r="21.125"/>
        <circle fill="#0004FA" cx="276.75" cy="116.458" r="15.958"/>
        <circle fill="#FFF700" cx="276.829" cy="117.788" r="11.205"/>
        <circle fill="#FF0009" cx="276.958" cy="118.583" r="7"/>
        <circle fill="#000AFB" cx="276.163" cy="118.459" r="3.749"/>
    </g>
    <g>
        <path d="M184.434 169.782c-3.786.085-7.571.157-11.357.23-2.966.057-6.468-.365-9.38.368-2.863.72-5.112 2.41-5.93 5.384a5.053 5.053 0 0 0-.168 1.026c-1.202 1.361-1.539 3.286-.041 5.234 1.818 2.364 2.699 5.206 4.688 7.502 2.224 2.566 4.354 5.462 6.927 7.677 4.101 3.529 11.412 9.11 17.07 6.438 5.852-2.764 11.476-6.839 16.612-10.755 3.069-2.34 5.796-4.521 9.221-6.361 2.458-1.32 3.873-3.658 4.538-6.279 3.918-15.442-24.574-10.634-32.18-10.464z"/>
    </g>
    <path fill="#C80000"
          d="M40.596 167.781c11.489 24 33.082 44.119 56.404 56.487 21.884 11.605 47.275 16.462 71.743 18.432 24.589 1.979 50.25.366 73.926-6.869 24.34-7.438 47.177-22.699 65.064-40.605 4.443-4.447 8.459-9.315 12.087-14.445 4.853-6.862-6.427-13.346-11.225-6.561-14.263 20.169-36.868 35.494-59.213 45.366-21.526 9.51-46.482 11.348-69.708 10.706-24.037-.665-48.969-4.838-71.01-14.763-23.77-10.703-45.542-30.701-56.844-54.308-3.618-7.561-14.825-.962-11.224 6.56z"/>
</svg>
